PathFileType	4	(X/Y/Z)	/Users/mathieubourgeois/Desktop/Analyse/Traitement/Sujet_07/Data/Transformed_Sujet_07_velo_60.trc
DataRate	CameraRate	NumFrames	NumMarkers	Units	OrigDataRate	OrigDataStartFrame	OrigNumFrames
120.000000	120.000000	5	36	mm	120.000000	934	1868
Frame#	Time	RFHD			LFHD			RBHD			LBHD			C7			CLAV			RSHO			LSHO			STRN			T10			RBWT			LBWT			RFWT			LFWT			RKNI			LKNI			RKNE			LKNE			LANI			RANI			LANE			RANE			LTOE			RTOE			LHEE			RHEE			RHUM			LHUM			RRAD			LRAD			RWRA			RWRB			LWRA			LWRB			LCAR			RCAR			
		X1	Y1	Z1	X2	Y2	Z2	X3	Y3	Z3	X4	Y4	Z4	X5	Y5	Z5	X6	Y6	Z6	X7	Y7	Z7	X8	Y8	Z8	X9	Y9	Z9	X10	Y10	Z10	X11	Y11	Z11	X12	Y12	Z12	X13	Y13	Z13	X14	Y14	Z14	X15	Y15	Z15	X16	Y16	Z16	X17	Y17	Z17	X18	Y18	Z18	X19	Y19	Z19	X20	Y20	Z20	X21	Y21	Z21	X22	Y22	Z22	X23	Y23	Z23	X24	Y24	Z24	X25	Y25	Z25	X26	Y26	Z26	X27	Y27	Z27	X28	Y28	Z28	X29	Y29	Z29	X30	Y30	Z30	X31	Y31	Z31	X32	Y32	Z32	X33	Y33	Z33	X34	Y34	Z34	X35	Y35	Z35	X36	Y36	Z36	

935	7.783333333333333	257.9591064453125	1352.86767578125	160.0081787109374	264.3039855957031	1340.006591796875	27.55906486511225	213.1859741210937	1498.432983398438	160.6550140380859	217.2040863037109	1500.305297851562	16.00942993164056	53.7491111755371	1490.839599609375	71.40684509277335	25.27641296386718	1360.216186523438	79.49551391601554	63.37620162963864	1433.617553710938	219.6231536865234	82.70779418945314	1455.231567382812	-62.70906448364266	-138.5738067626953	1294.344604492188	71.44210815429678	-194.0059051513672	1512.928100585938	56.40426635742176	-445.1514892578125	1298.865966796875	115.7590255737303	-442.6202087402344	1293.915893554688	2.715239286422596	-289.5694274902344	1217.400756835938	168.1085205078124	-285.2744445800781	1212.67236328125	-46.97289276123058	-25.78327560424806	829.1678466796875	129.8599090576171	-150.2485504150391	734.7737426757812	-47.54279708862311	-52.33374786376956	886.4996948242188	232.4829101562499	-128.234619140625	779.8196411132812	-154.0679016113282	-371.3772277832031	427.0552062988281	-49.54324722290046	-106.9149551391602	453.7843322753906	125.5936050415039	-394.0472106933594	424.9174499511719	-137.7714843750001	-136.9884338378907	444.1613159179688	212.2804565429687	-245.9767761230469	273.2420959472656	-109.9938659667969	70.56134033203122	381.414306640625	204.3245544433593	-450.6990356445312	443.2062683105469	-97.5917282104493	-190.8381652832032	420.7799987792969	166.1880187988281	77.6538391113281	1102.209228515625	248.5164947509765	89.97640228271486	1116.10693359375	-117.1050033569337	125.2328262329101	1128.576171875	289.9795227050781	148.4132385253907	1133.762084960938	-144.9028015136719	320.2558898925781	936.9324951171875	253.3563995361328	281.4627990722656	901.479736328125	307.0390319824219	317.1434326171875	930.4716796875	-102.677848815918	275.6478576660156	887.9013671875	-152.6550598144532	370.8521728515625	915.372802734375	-193.2232971191406	371.1771850585937	925.8593139648438	341.4214172363281	
936	7.791666666666667	258.1183776855469	1352.897094726562	158.8161315917968	264.1852722167969	1340.058349609375	26.32455253601069	213.3981018066406	1498.457153320312	159.5910491943359	216.975341796875	1500.688354492188	14.67814350128167	53.74103164672851	1490.935913085938	70.60433197021476	25.15664100646972	1360.321166992188	78.80865478515616	63.5082092285156	1433.613403320312	219.0149383544921	82.54019165039064	1455.1962890625	-63.51291656494149	-138.6768798828125	1294.48193359375	71.36376190185537	-194.0966186523438	1513.0693359375	56.53924179077137	-444.6360473632812	1298.524658203125	116.6754302978514	-442.6114501953125	1294.0791015625	3.530020952224598	-288.9168395996094	1216.8369140625	168.1448211669921	-285.3960571289062	1213.240356445312	-46.81293106079112	-29.46927070617677	821.4566650390625	128.8182220458984	-144.6384124755859	739.9896240234375	-48.03061676025396	-55.62843704223636	879.0258178710938	231.3221282958984	-122.9449234008789	784.9342041015625	-154.5785522460938	-371.5494995117188	436.8300476074219	-49.49884033203132	-104.6907958984375	444.7807312011719	125.5896682739257	-394.3064270019531	434.9556579589844	-137.6415100097657	-134.6853637695313	435.0518798828125	212.2538452148437	-248.6046295166016	281.1382446289062	-109.7473602294922	73.20340728759763	372.6716613769531	204.100341796875	-450.7261962890625	454.1336669921875	-97.37717437744149	-188.3578796386719	411.4420471191406	166.2032928466796	77.82026672363278	1102.307250976562	248.3420410156249	89.98640441894533	1116.041381835938	-117.1023712158204	125.4525146484375	1128.708129882812	289.7109680175781	148.3739776611328	1133.698608398438	-144.9626922607422	320.3282165527343	936.91552734375	253.30908203125	281.5348815917968	901.524658203125	306.9873962402344	317.1962890625	930.4501953125	-102.7289047241211	275.6835327148438	887.8728637695312	-152.6958618164063	370.8995666503906	915.32373046875	-193.2602844238281	371.2154541015624	925.8651733398438	341.3853149414062	
937	7.8	258.2698669433594	1352.923583984375	157.5702209472656	263.8228454589844	1340.13134765625	25.95604896545405	213.613784790039	1498.480834960938	158.5054779052734	216.8785705566406	1500.810546875	13.58909416198724	53.75938034057616	1491.028930664062	69.84120941162101	25.2101707458496	1360.399658203125	78.10961914062491	63.70120620727536	1433.646850585938	218.4180908203124	82.40981292724611	1455.1962890625	-64.20068359375007	-138.6690521240234	1294.594848632812	71.19640350341787	-194.151611328125	1513.230102539062	56.6507110595702	-444.0643310546875	1298.185546875	117.5920791625975	-442.608642578125	1294.249145507812	4.405094146728382	-288.2093200683594	1216.27734375	168.1548614501952	-285.5823059082031	1213.853515625	-46.11188507080089	-33.37376403808595	813.696533203125	127.7165603637695	-139.0763549804688	745.3680419921875	-48.44922637939459	-59.21266555786136	871.4503173828125	230.2223510742187	-117.6027145385742	790.1991577148438	-155.0112457275391	-371.4110412597656	446.543701171875	-49.37709808349616	-102.9647369384766	435.8910827636719	125.6488800048828	-394.2190856933594	445.0691528320312	-137.4633789062501	-132.7799987792969	425.9937744140625	212.2282104492187	-250.9226989746094	289.5086364746094	-109.3769073486329	75.34096527099607	363.7281799316406	203.8733520507812	-450.31640625	465.1003112792969	-97.1499786376954	-186.3337860107422	402.34423828125	166.3208007812499	77.99877166748044	1102.409912109375	248.193618774414	90.01907348632814	1116.001586914062	-117.1216659545899	125.7321472167968	1128.88916015625	289.4154357910156	148.3866882324219	1133.663330078125	-145.0442047119141	320.3958740234374	936.8895263671875	253.2836761474609	281.5737609863281	901.5277099609375	306.9728088378906	317.2284851074219	930.4454956054688	-102.724349975586	275.7327270507812	887.8577270507812	-152.6656188964844	370.9520263671875	915.3107299804688	-193.2408752441406	371.2417602539062	925.8524169921875	341.4148254394531	
938	7.808333333333334	258.4867858886719	1352.955444335938	156.3798370361328	263.7487487792969	1340.20654296875	24.73682594299311	213.9073638916015	1498.539428710938	157.4668731689453	216.9191131591797	1500.5966796875	12.76817131042474	53.84096145629882	1491.144165039062	69.12490081787101	25.19810295104979	1360.5126953125	77.39609527587882	63.9004096984863	1433.643188476562	217.870620727539	82.35067749023439	1455.232421875	-64.94304656982429	-138.6606292724609	1294.72900390625	70.95268249511709	-194.1684265136719	1513.380615234375	56.75478363037098	-443.4499206542969	1297.850341796875	118.6017913818358	-442.5465087890625	1294.398193359375	5.290647983550892	-287.4942626953125	1215.71337890625	168.1226196289061	-285.5662231445312	1214.328491210938	-46.18363571167003	-37.41055297851564	805.9464111328125	126.6065368652343	-133.3465270996094	750.968994140625	-48.77761459350592	-62.8641166687012	863.880859375	228.9703674316406	-112.245491027832	795.6461181640625	-155.3223571777344	-370.78173828125	456.4281311035156	-49.19721603393562	-101.6347961425781	427.0521850585938	125.6963729858398	-393.7320251464844	455.2377624511719	-137.248260498047	-131.2989044189453	417.0602722167969	212.2913665771484	-252.4253540039062	297.9021606445312	-109.2475280761719	77.01585388183591	354.6236267089844	203.612808227539	-449.0838317871094	476.5677185058594	-96.88267517089852	-184.6964874267578	393.4424438476562	166.7935028076171	78.17780303955075	1102.522583007812	248.0630798339843	90.05196380615236	1115.9677734375	-117.1785583496094	125.9828948974609	1129.039184570312	289.1728210449218	148.4137420654297	1133.61376953125	-145.1353454589844	320.4688720703124	936.8441772460938	253.2951507568359	281.6031188964843	901.5291748046875	306.9921569824219	317.2692565917969	930.4528198242188	-102.686264038086	275.8076171875	887.8565673828125	-152.6207580566407	371.0096435546875	915.3029174804688	-193.1730194091797	371.2482604980468	925.83642578125	341.4775390625	
939	7.816666666666666	258.7821960449219	1353.00439453125	155.1528778076171	263.7387084960938	1340.325561523438	23.51488113403315	214.2213134765625	1498.592651367188	156.4125366210937	216.8472595214844	1501.129516601562	11.45275211334222	53.97729873657226	1491.283325195312	68.4365692138671	25.30555343627929	1360.61669921875	76.74119567871085	64.11543273925778	1433.668334960938	217.3266601562499	82.35989379882814	1455.30419921875	-65.59834289550788	-138.5542602539062	1294.850341796875	70.74005126953115	-194.1518402099609	1513.529663085938	56.81774139404286	-442.7690124511719	1297.484130859375	119.5858917236327	-442.5172729492188	1294.556884765625	6.259379386901722	-286.6927490234375	1215.1650390625	168.1225280761718	-285.5627746582031	1214.825805664062	-46.17187500000011	-41.71122360229494	798.14013671875	125.5099487304687	-127.5800933837891	756.7012939453125	-49.03445816040045	-66.75322723388675	856.3197021484375	227.7912445068359	-106.9142532348633	801.2503051757812	-155.4893798828126	-369.5575256347656	466.4594116210938	-50.00170516967781	-100.6327362060547	418.3030700683594	125.8400955200195	-392.9324035644531	465.4201354980469	-136.9839935302735	-130.1351470947266	408.3374633789062	212.4796447753906	-253.4918212890625	306.4444885253906	-109.0691909790039	78.20799255371091	345.3004150390625	203.3279724121093	-448.2776184082031	486.8062133789062	-96.4334259033204	-183.8186340332032	385.0962829589844	167.9389648437499	78.3498840332031	1102.610229492188	247.9219207763671	90.11021423339845	1115.987426757812	-117.2343902587891	126.2006149291992	1129.16845703125	288.9384460449218	148.4515838623047	1133.59228515625	-145.238510131836	320.5457458496093	936.8026123046875	253.3567962646484	281.6343994140624	901.5244750976562	307.0330810546875	317.3065185546875	930.447265625	-102.6105194091797	275.8439331054688	887.85693359375	-152.5581207275391	371.0652465820312	915.2890625	-193.0921173095703	371.2604370117187	925.79541015625	341.5604248046875	
